<svg xmlns="http://www.w3.org/2000/svg" version="1.1" xmlns:xlink="http://www.w3.org/1999/xlink" xmlns:svgjs="http://svgjs.com/svgjs" id="Pattern1420SvgRootPreview" width="100%" height="100%"><defs><pattern x="0" y="0" width="1" height="1" patternUnits="userSpaceOnUse" id="Pattern1420Layer1"><g id="PatternRootContent1"><g id="Pattern1420Layer1background"><rect width="1" height="1" id="Pattern1420Background1" class="color_1 fill_color_1" fill="#614d3b"></rect></g></g></pattern><pattern x="0" y="0" width="64" height="25" patternUnits="userSpaceOnUse" id="Pattern1420Layer2" patternTransform="matrix(1,0,0,1,0,0)"><g id="PatternRootContent2"><g id="Pattern1420Layer2Element1"><use xlink:href="#Pattern1420Element1" x="-20" y="19.25" transform="translate(-10, 29.25) scale(1) translate(10, -29.25) rotate(90, -8, 31.25)"></use><use xlink:href="#Pattern1420Element1" x="-20" y="-5.75" transform="translate(-10, 4.25) scale(1) translate(10, -4.25) rotate(90, -8, 6.25)"></use><use xlink:href="#Pattern1420Element1" x="-4" y="0.5" transform="translate(6, 10.5) scale(1) translate(-6, -10.5) rotate(90, 8, 12.5)"></use><use xlink:href="#Pattern1420Element1" x="-4" y="-24.5" transform="translate(6, -14.5) scale(1) translate(-6, 14.5) rotate(90, 8, -12.5)"></use><use xlink:href="#Pattern1420Element1" x="-4" y="25.5" transform="translate(6, 35.5) scale(1) translate(-6, -35.5) rotate(90, 8, 37.5)"></use><use xlink:href="#Pattern1420Element1" x="12" y="6.75" transform="translate(22, 16.75) scale(1) translate(-22, -16.75) rotate(90, 24, 18.75)"></use><use xlink:href="#Pattern1420Element1" x="12" y="-18.25" transform="translate(22, -8.25) scale(1) translate(-22, 8.25) rotate(90, 24, -6.25)"></use><use xlink:href="#Pattern1420Element1" x="28" y="13" transform="translate(38, 23) scale(1) translate(-38, -23) rotate(90, 40, 25)"></use><use xlink:href="#Pattern1420Element1" x="28" y="-12" transform="translate(38, -2) scale(1) translate(-38, 2) rotate(90, 40, 0)"></use><use xlink:href="#Pattern1420Element1" x="44" y="19.25" transform="translate(54, 29.25) scale(1) translate(-54, -29.25) rotate(90, 56, 31.25)"></use><use xlink:href="#Pattern1420Element1" x="44" y="-5.75" transform="translate(54, 4.25) scale(1) translate(-54, -4.25) rotate(90, 56, 6.25)"></use><use xlink:href="#Pattern1420Element1" x="60" y="0.5" transform="translate(70, 10.5) scale(1) translate(-70, -10.5) rotate(90, 72, 12.5)"></use><use xlink:href="#Pattern1420Element1" x="60" y="0.5" transform="translate(70, 10.5) scale(1) translate(-70, -10.5) rotate(90, 72, 12.5)"></use></g></g></pattern><symbol id="Pattern1420Element1"><path d="M15.86 4.39V19.39C15.86 21.06 17 22 18.25 22C19.39 22 20.64 21.21 20.64 19.39V4.5C20.64 2.96 19.5 2 18.25 2S15.86 3.06 15.86 4.39M9.61 12V19.39C9.61 21.07 10.77 22 12 22C13.14 22 14.39 21.21 14.39 19.39V12.11C14.39 10.57 13.25 9.61 12 9.61S9.61 10.67 9.61 12M5.75 17.23C7.07 17.23 8.14 18.3 8.14 19.61C8.14 20.93 7.07 22 5.75 22S3.36 20.93 3.36 19.61C3.36 18.3 4.43 17.23 5.75 17.23Z" class="color_2 fill_color_2" fill="#382718"></path></symbol></defs><rect width="100%" height="100%" id="Pattern1420RctLayer1" fill="url(#Pattern1420Layer1)"></rect><rect width="100%" height="100%" id="Pattern1420RctLayer2" fill="url(#Pattern1420Layer2)"></rect></svg>