<svg xmlns="http://www.w3.org/2000/svg" version="1.1" xmlns:xlink="http://www.w3.org/1999/xlink" xmlns:svgjs="http://svgjs.com/svgjs" id="Pattern1471SvgRootPreview" width="100%" height="100%"><defs><pattern x="0" y="0" width="1" height="1" patternUnits="userSpaceOnUse" id="Pattern1471Layer1"><g id="PatternRootContent1"><g id="Pattern1471Layer1background"><rect width="1" height="1" id="Pattern1471Background1" class="color_1 fill_color_1" fill="#cc9c84"></rect></g></g></pattern><pattern x="0" y="0" width="48" height="40" patternUnits="userSpaceOnUse" id="Pattern1471Layer2" patternTransform="matrix(0.7071067811865476,0.7071067811865475,-0.7071067811865475,0.7071067811865476,0,0)"><g id="PatternRootContent2"><g id="Pattern1471Layer2Element1"><use xlink:href="#Pattern1471Element1" x="24" y="-34" transform="translate(44, -14) scale(1) translate(-44, 14) rotate(0, 48, -10)"></use><use xlink:href="#Pattern1471Element1" x="-24" y="-34" transform="translate(-4, -14) scale(1) translate(4, 14) rotate(0, 0, -10)"></use><use xlink:href="#Pattern1471Element1" x="0" y="-14" transform="translate(20, 6) scale(1) translate(-20, -6) rotate(0, 24, 10)"></use><use xlink:href="#Pattern1471Element1" x="-48" y="-14" transform="translate(-28, 6) scale(1) translate(28, -6) rotate(0, -24, 10)"></use><use xlink:href="#Pattern1471Element1" x="24" y="6" transform="translate(44, 26) scale(1) translate(-44, -26) rotate(0, 48, 30)"></use><use xlink:href="#Pattern1471Element1" x="-24" y="6" transform="translate(-4, 26) scale(1) translate(4, -26) rotate(0, 0, 30)"></use><use xlink:href="#Pattern1471Element1" x="0" y="26" transform="translate(20, 46) scale(1) translate(-20, -46) rotate(0, 24, 50)"></use><use xlink:href="#Pattern1471Element1" x="0" y="26" transform="translate(20, 46) scale(1) translate(-20, -46) rotate(0, 24, 50)"></use></g></g></pattern><symbol id="Pattern1471Element1"><path d="M14 36h4V12h-4v24zm8 8h4V4h-4v40zM6 28h4v-8H6v8zm24 8h4V12h-4v24zm8-16v8h4v-8h-4z" class="color_2 fill_color_2" fill="#3c303c"></path></symbol></defs><rect width="100%" height="100%" id="Pattern1471RctLayer1" fill="url(#Pattern1471Layer1)"></rect><rect width="100%" height="100%" id="Pattern1471RctLayer2" fill="url(#Pattern1471Layer2)"></rect></svg>